HIERARCHY
ROOT SpineBase
{
  OFFSET 0.000000 0.000000 0.000000
  CHANNELS 6 Xposition Yposition Zposition Zrotation Xrotation Yrotation
  JOINT SpineMid
  {
    OFFSET -0.000000 26.679255 0.000000
    CHANNELS 3 Zrotation Xrotation Yrotation
    JOINT SpineShoulder
    {
      OFFSET -0.017846 19.787170 -0.656501
      CHANNELS 3 Zrotation Xrotation Yrotation
      JOINT Neck
      {
        OFFSET -0.012008 6.549760 -0.510225
        CHANNELS 3 Zrotation Xrotation Yrotation
        JOINT Head
        {
          OFFSET -1.879742 12.867863 -1.809580
          CHANNELS 3 Zrotation Xrotation Yrotation
          End Site
          {
            OFFSET 0 0 0
          }
        }
      }
      JOINT ShoulderLeft
      {
        OFFSET -11.899422 -0.884308 9.176206
        CHANNELS 3 Zrotation Xrotation Yrotation
        JOINT ElbowLeft
        {
          OFFSET -2.439138 -14.177582 4.174677
          CHANNELS 3 Zrotation Xrotation Yrotation
          JOINT WristLeft
          {
            OFFSET -3.333781 -1.181744 -20.858668
            CHANNELS 3 Zrotation Xrotation Yrotation
            JOINT HandLeft
            {
              OFFSET 1.934365 -1.574565 -18.613868
              CHANNELS 3 Zrotation Xrotation Yrotation
              JOINT HandTipLeft
              {
                OFFSET -1.581649 1.449248 -3.015955
                CHANNELS 3 Zrotation Xrotation Yrotation
                End Site
                {
                  OFFSET 0 0 0
                }
              }
              JOINT ThumbLeft
              {
                OFFSET -5.239435 0.332785 0.304122
                CHANNELS 3 Zrotation Xrotation Yrotation
                End Site
                {
                  OFFSET 0 0 0
                }
              }
            }
          }
        }
      }
      JOINT ShoulderRight
      {
        OFFSET 11.153660 -3.025852 -11.896678
        CHANNELS 3 Zrotation Xrotation Yrotation
        JOINT ElbowRight
        {
          OFFSET 2.386678 -19.124187 -4.517991
          CHANNELS 3 Zrotation Xrotation Yrotation
          JOINT WristRight
          {
            OFFSET -19.761178 2.327179 -5.342337
            CHANNELS 3 Zrotation Xrotation Yrotation
            JOINT HandRight
            {
              OFFSET -18.062282 3.308382 -2.815997
              CHANNELS 3 Zrotation Xrotation Yrotation
              JOINT HandTipRight
              {
                OFFSET -5.286279 0.981399 -3.656932
                CHANNELS 3 Zrotation Xrotation Yrotation
                End Site
                {
                  OFFSET 0 0 0
                }
              }
              JOINT ThumbRight
              {
                OFFSET -4.465135 0.312399 -4.076342
                CHANNELS 3 Zrotation Xrotation Yrotation
                End Site
                {
                  OFFSET 0 0 0
                }
              }
            }
          }
        }
      }
    }
  }
  JOINT HipLeft
  {
    OFFSET -4.698349 0.669211 0.734577
    CHANNELS 3 Zrotation Xrotation Yrotation
    JOINT KneeLeft
    {
      OFFSET 1.164587 -26.192459 9.801002
      CHANNELS 3 Zrotation Xrotation Yrotation
      JOINT AnkleLeft
      {
        OFFSET 11.814858 -35.542027 12.332853
        CHANNELS 3 Zrotation Xrotation Yrotation
        JOINT FootLeft
        {
          OFFSET -1.313578 -7.151235 -1.295080
          CHANNELS 3 Zrotation Xrotation Yrotation
          End Site
          {
            OFFSET 0 0 0
          }
        }
      }
    }
  }
  JOINT HipRight
  {
    OFFSET 4.279417 0.400824 -7.094025
    CHANNELS 3 Zrotation Xrotation Yrotation
    JOINT KneeRight
    {
      OFFSET 7.354913 -29.249960 6.611558
      CHANNELS 3 Zrotation Xrotation Yrotation
      JOINT AnkleRight
      {
        OFFSET 1.464019 -34.312397 14.931766
        CHANNELS 3 Zrotation Xrotation Yrotation
        JOINT FootRight
        {
          OFFSET -2.682430 -5.350799 -5.172824
          CHANNELS 3 Zrotation Xrotation Yrotation
          End Site
          {
            OFFSET 0 0 0
          }
        }
      }
    }
  }
}
MOTION
Frames: 8
Frame Time: 0.033333
24.725094 68.665559 341.687603 -1.328040 -0.537435 44.977639 0.093820 0.208071 -45.028215 0.117939 0.185224 -0.052011 2.573973 -0.980206 0.124643 0.000000 0.000000 0.000000 1.290396 0.141085 0.099203 -1.553370 7.261644 3.244950 1.983020 1.627402 0.525123 -27.212585 -19.005754 -69.513588 0.000000 0.000000 0.000000 0.000000 0.000000 0.000000 3.794986 -2.414423 -0.763574 -7.989061 4.264239 7.173286 -8.675180 -1.101040 -43.154909 -3.602565 8.301431 58.002109 0.000000 0.000000 0.000000 0.000000 0.000000 0.000000 4.207124 0.837202 -44.449338 -2.485746 -3.538573 -1.306411 -35.901922 46.450470 13.448037 0.000000 0.000000 0.000000 -0.553645 -0.641871 -45.630970 3.797601 8.449132 1.871634 -8.415088 -34.682344 19.439984 0.000000 0.000000 0.000000
24.732604 68.659102 341.734289 -1.377027 -0.516240 45.033281 0.110974 0.215279 -45.084983 0.111570 0.182021 -0.054269 2.826305 -1.124139 0.145091 0.000000 0.000000 0.000000 1.338991 0.106110 0.103272 -1.553351 7.261458 3.245076 2.000284 1.481775 0.306644 -26.809104 -18.519025 -68.587561 0.000000 0.000000 0.000000 0.000000 0.000000 0.000000 3.879587 -2.153446 -0.734862 -7.971337 3.974699 7.252440 -10.826146 -1.650074 -75.296274 -7.734920 7.134508 92.397661 0.000000 0.000000 0.000000 0.000000 0.000000 0.000000 4.153023 0.853620 -44.542002 -2.335694 -3.502343 -1.234170 -26.685215 40.767908 7.854959 0.000000 0.000000 0.000000 -0.392308 -0.686147 -45.637683 3.582430 8.023168 1.775227 -0.669396 -41.603428 21.714300 0.000000 0.000000 0.000000
24.760497 68.654162 341.777191 -1.400136 -0.499165 45.057787 0.125975 0.228516 -45.109850 0.109983 0.190910 -0.055144 3.064114 -1.090658 0.190947 0.000000 0.000000 0.000000 1.362631 0.060292 0.105549 -1.553326 7.261249 3.245190 1.998063 1.337389 0.206016 -26.542754 -18.684313 -67.897128 0.000000 0.000000 0.000000 0.000000 0.000000 0.000000 4.122165 -2.158383 -0.773940 -8.090664 3.924897 7.595515 -9.155714 -1.961811 -58.470025 -6.957138 7.517257 74.153745 0.000000 0.000000 0.000000 0.000000 0.000000 0.000000 3.985878 0.993501 -44.659615 -2.014963 -3.504301 -1.105673 -19.645874 35.006537 4.208391 0.000000 0.000000 0.000000 -0.342872 -0.691518 -45.645984 3.806690 8.080979 1.851371 9.985387 -52.991122 31.586573 0.000000 0.000000 0.000000
24.790403 68.645014 341.815564 -1.421545 -0.501787 45.156650 0.147218 0.245302 -45.209136 0.112471 0.205110 -0.055526 3.275835 -0.893225 0.253425 0.000000 0.000000 0.000000 1.378963 0.022004 0.107201 -1.553304 7.261058 3.245310 1.947195 1.213319 0.422424 -25.811108 -18.386877 -66.415004 0.000000 0.000000 0.000000 0.000000 0.000000 0.000000 4.323897 -2.024415 -0.793311 -8.318945 3.776301 7.907283 -8.054772 -3.397999 -63.417818 -10.874240 5.591456 82.092195 0.000000 0.000000 0.000000 0.000000 0.000000 0.000000 3.793717 1.236307 -44.887529 -1.578633 -3.584963 -0.947568 -15.377761 30.757200 2.349212 0.000000 0.000000 0.000000 -0.352204 -0.654397 -45.752388 3.413238 7.253354 1.672045 4.277191 -45.482623 24.656170 0.000000 0.000000 0.000000
24.834871 68.643021 341.833950 -1.413739 -0.497742 45.242309 0.150570 0.258332 -45.294553 0.118539 0.226333 -0.054732 3.441416 -0.512524 0.333421 0.000000 0.000000 0.000000 1.372447 -0.014735 0.107064 -1.553304 7.260997 3.245399 1.934087 0.889078 0.244718 -27.058591 -17.984882 -69.216961 0.000000 0.000000 0.000000 0.000000 0.000000 0.000000 5.339921 -2.563300 -1.060272 -9.155684 4.147938 7.959503 -7.259473 -2.179856 -44.138739 -7.102732 7.597317 58.610461 0.000000 0.000000 0.000000 0.000000 0.000000 0.000000 3.493396 1.586696 -45.149528 -0.971143 -3.712628 -0.735828 -17.152015 33.214941 2.989662 0.000000 0.000000 0.000000 -0.430907 -0.641382 -45.861898 2.689990 6.124831 1.362955 -8.824150 -19.859058 13.147523 0.000000 0.000000 0.000000
24.884050 68.643945 341.847337 -1.395597 -0.477394 45.274138 0.128218 0.256564 -45.326091 0.123531 0.232975 -0.054115 3.561218 -0.106671 0.404574 0.000000 0.000000 0.000000 1.363959 -0.024585 0.106501 -1.553331 7.261100 3.245465 1.933183 0.901897 0.261018 -27.068828 -17.130244 -69.429667 0.000000 0.000000 0.000000 0.000000 0.000000 0.000000 6.396593 -2.973694 -1.320204 -9.851262 4.397995 8.310461 -8.153016 -2.170663 -49.026553 -7.064903 7.500017 59.721395 0.000000 0.000000 0.000000 0.000000 0.000000 0.000000 3.673598 1.384495 -45.069956 -1.398944 -3.765159 -0.923937 -17.789726 33.629974 3.396985 0.000000 0.000000 0.000000 -0.525488 -0.611453 -45.916038 2.426201 5.460944 1.231228 -9.192623 -11.582091 9.828153 0.000000 0.000000 0.000000
24.934165 68.649829 341.850756 -1.362520 -0.414258 45.252569 0.120433 0.256368 -45.302818 0.137723 0.245018 -0.051594 3.529846 0.017147 0.430743 0.000000 0.000000 0.000000 1.322049 -0.094279 0.103898 -1.553384 7.261370 3.245478 1.961667 1.156884 0.288057 -28.234393 -18.018099 -71.906953 0.000000 0.000000 0.000000 0.000000 0.000000 0.000000 6.777897 -3.377506 -1.431363 -9.962871 4.658521 8.793480 -7.901507 -1.440618 -38.815201 -4.753211 7.859281 46.245901 0.000000 0.000000 0.000000 0.000000 0.000000 0.000000 3.560977 1.360728 -45.058598 -1.369106 -3.767975 -0.922328 -17.770278 35.204312 3.371186 0.000000 0.000000 0.000000 -0.698920 -0.601007 -45.930300 1.975711 4.669316 1.019385 -10.732652 2.162477 6.025879 0.000000 0.000000 0.000000
24.985381 68.649597 341.847527 -1.316488 -0.356109 45.185132 0.130867 0.266483 -45.232963 0.146931 0.257814 -0.048605 3.407268 -0.029565 0.425959 0.000000 0.000000 0.000000 1.266456 -0.180067 0.100306 -1.553424 7.261574 3.245495 1.938473 1.522782 0.716805 -27.696396 -18.350927 -70.853706 0.000000 0.000000 0.000000 0.000000 0.000000 0.000000 7.126319 -3.600193 -1.519431 -10.070272 4.702004 8.798974 -7.776786 -1.262878 -35.136436 -4.735502 7.814594 42.315933 0.000000 0.000000 0.000000 0.000000 0.000000 0.000000 3.436887 1.347731 -45.002461 -1.347468 -3.766801 -0.924574 -17.386975 28.222215 3.406329 0.000000 0.000000 0.000000 -0.883934 -0.568161 -45.900422 1.884160 4.594482 0.972520 -10.073163 4.600469 4.776207 0.000000 0.000000 0.000000
